<svg width="48" height="60" viewBox="0 0 189 235" fill="none" xmlns="http://www.w3.org/2000/svg"
  class="prefix__text-white prefix__flex-shrink-0">
  <path fill-rule="evenodd" clip-rule="evenodd"
    d="M37.01 189.564l62.065-19.474c.227-.072.435-.176.628-.328 2.667-2.115 23.357-19.696 34.971-64.793 11.874-46.102 10.713-114.438 6.501-103.334-6.337 13.267-17.147 15.937-24.146 15.937-15.78 0-28.403-9.228-32.35-12.682 2.303 5.124 6.59 7.937 9.854 10.08 2.467 1.619 4.35 2.854 4.35 4.414 0 3.076-6.877 0-10.257-1.812 1.578 2.72 12.623 9.968 29.192 9.968 14.038 0 19.607-10.791 21.986-19.081-9.83 57.32-45.442 135.518-105.03 175.151-4.258 3.036-2.642 7.935 2.235 5.954zM1.683 220.358a213.26 213.26 0 0111.891-5.328c120.392-49.754 173.273-46.252 174.05-23.025.007.294-.05.681-.143.962-.992 2.835-6.718 18.828-13.867 30.981l-.029.049c-.83 1.383-2.496 1.554-3.539.364l-.141-.162c-4.01-4.659-10.058-9.169-20.053-9.169-7.36 0-12.829 4.324-18.656 8.93-6.643 5.253-13.752 10.873-24.661 10.873-11.785 0-25.007-3.77-38.269-7.551-9.785-2.79-19.592-5.586-28.859-6.879-6.468-.901-22.18-1.291-36.379 3.608-2.425.902-3.235-2.733-1.345-3.653zm181.844-48.425c-14.757-10.31-36.697-9.875-54.935-6.233l-4.81.96-3.617.722c-2.693.5-3.924-2.156-1.998-4.315l3.262-3.567.001-.002 2.968-3.245c26.519-28.995 28.644-65.215 23.809-89.106-.233-4.017 3.573-4.004 3.872-3.637.6.74 31.144 38.39 39.007 76.375-3.823 30.294 NaN NaN NaN NaNlNaN NaNcNaN NaN NaN NaN NaN NaN NaN NaN NaN NaN NaN NaN NaN NaN NaN NaN NaN NaNlNaN NaNz"
    fill="currentColor" />
</svg>