<svg width="169" height="36" fill="none" xmlns="http://www.w3.org/2000/svg">
  <path
    d="M129.103 4.8c0-.654.218-1.309.763-1.854.437-.546 1.091-.764 1.855-.764.763 0 1.418.218 1.854.764.546.545.764 1.09.764 1.854s-.218 1.418-.764 1.855c-.545.545-1.091.763-1.854.763-.764 0-1.309-.218-1.855-.763a2.556 2.556 0 01-.763-1.855zm.545 6.218l4.036-.763V26.4h-4.036V11.018zM125.502 9.82h-4.036v9.163c0 1.854-1.527 3.49-3.491 3.49-1.854 0-3.491-1.527-3.491-3.49V9.819h-4.036v9.164c0 4.145 3.382 7.527 7.527 7.527 4.146 0 7.527-3.382 7.527-7.527V9.819zM70.828 17.237v9.164h4.036v-9.164a3.399 3.399 0 013.382-3.381c1.855 0 3.49 1.527 3.49 3.49v9.164h4.037v-9.164c0-4.145-3.382-7.527-7.527-7.527s-7.418 3.273-7.418 7.418zM144.702 22.69h-.655c-.872 0-1.527-.218-1.745-.654-.218-.437-.436-1.091-.436-1.746V0l-3.928.764V20.29c0 .764.11 1.528.219 2.182.109.655.436 1.31.763 1.855.437.545.873.981 1.637 1.2.654.327 1.527.436 2.618.436.436 0 .872 0 1.418-.11V22.69h.109zM168.156 22.69c-.873 0-1.527-.218-1.746-.654-.218-.437-.436-1.091-.436-1.746V0l-3.927.764v9.49c-.437-.218-.873-.436-1.418-.654-1.091-.437-2.182-.655-3.491-.655a9.45 9.45 0 00-6.327 2.4c-.764.764-1.418 1.636-1.855 2.727-.436 1.091-.654 2.182-.654 3.491 0 1.31.218 2.4.654 3.49.437 1.092 1.091 1.964 1.855 2.728.763.764 1.745 1.31 2.836 1.745 1.091.437 2.182.655 3.491.655 1.2 0 2.4-.218 3.491-.655.327-.108.654-.327.981-.436l-.109-.109c-.436-.545-.654-1.09-.763-1.854-.109-.546-.218-1.091-.218-1.746a4.864 4.864 0 01-1.2.873c-.546.327-1.309.436-2.073.436s-1.527-.109-2.073-.436c-.545-.327-1.091-.764-1.418-1.2-.436-.545-.654-1.09-.873-1.636-.218-.655-.327-1.31-.327-1.855 0-.654.109-1.2.327-1.854.219-.655.437-1.2.873-1.637.436-.545.873-.872 1.418-1.2.546-.327 1.309-.436 2.073-.436s1.527.11 2.073.436c.545.328 1.09.655 1.418 1.2.327.546.654 1.091.872 1.637.11.218.11.654.11.981v3.6c0 .764.109 1.528.218 2.182.109.655.436 1.31.763 1.855.437.545.873.981 1.637 1.2.654.327 1.527.436 2.618.436.327 0 .872 0 1.309-.11V22.69h-.109zM27.274 13.31c.873 0 1.528.218 1.746.654.218.436.436 1.091.436 1.746V36l3.927-.764v-9.49c.437.218.873.436 1.418.654 1.091.437 2.182.655 3.491.655 1.2 0 2.4-.218 3.491-.655a9.481 9.481 0 002.836-1.745c.764-.764 1.419-1.637 1.855-2.727.436-1.091.654-2.182.654-3.491 0-1.31-.218-2.4-.654-3.491-.436-1.09-1.091-1.964-1.855-2.727-.763-.764-1.745-1.31-2.836-1.746-1.09-.436-2.182-.654-3.49-.654-1.2 0-2.4.218-3.492.654-.327.11-.654.328-.981.437l.109.109c.436.545.654 1.09.763 1.854.11.546.218 1.091.218 1.746a4.845 4.845 0 011.2-.873c.546-.327 1.31-.436 2.073-.436.764 0 1.527.109 2.073.436.545.327 1.09.764 1.418 1.2.436.545.654 1.09.873 1.636.218.655.327 1.31.327 1.855 0 .654-.11 1.2-.327 1.854-.218.655-.437 1.2-.873 1.637-.436.545-.873.872-1.418 1.2-.546.327-1.31.436-2.073.436-.763 0-1.527-.11-2.072-.436-.546-.328-1.091-.655-1.419-1.2-.327-.546-.654-1.091-.872-1.637-.11-.218-.11-.654-.11-.982v-3.6c0-.763-.108-1.527-.218-2.181-.109-.655-.436-1.31-.763-1.855-.437-.545-.873-.981-1.636-1.2-.655-.327-1.528-.436-2.619-.436-.327 0-.872 0-1.309.11v3.163h.11zM66.655 14.728a9.536 9.536 0 00-1.636-2.727c-.654-.763-1.527-1.309-2.509-1.636-.982-.328-1.964-.546-3.164-.546-1.2 0-2.29.218-3.381.655-1.091.436-1.964.982-2.728 1.745-.763.764-1.418 1.637-1.854 2.728-.436 1.09-.655 2.29-.655 3.6 0 1.308.219 2.508.655 3.6a6.697 6.697 0 001.854 2.617 6.316 6.316 0 002.728 1.637c1.09.327 2.181.545 3.49.545 2.073 0 4.255-.545 6.219-2.29l-2.182-2.619c-.328.327-1.31.982-1.527 1.091-.655.327-1.528.546-2.51.546-.545 0-1.2-.11-1.636-.328-.545-.218-.982-.436-1.418-.872a3.41 3.41 0 01-.982-1.2c-.218-.437-.436-.982-.436-1.637-.11-1.527 0-2.945 0-2.945.109-1.2.545-2.073 1.418-2.836.873-.764 1.855-1.091 3.054-1.091.655 0 1.2.109 1.746.327a4.84 4.84 0 011.2.873 2.6 2.6 0 01.654 1.2c.11.436.219.981.219 1.527h-6.982v2.945h10.909v-.545-.546c.109-1.418-.11-2.727-.546-3.818zM104.72 14.723c-1.457-1.68-6.05-1.568-6.05-1.568h-3.248v3.809h3.92c1.009 0 3.137 0 3.137 2.688 0 3.025-2.352 3.025-2.688 3.025h-6.05V7.778h3.81c.335 0 .56.112.896.224.224.112.56.336.672.56.112.224.336.56.448.784.112.336.224.672.224 1.008 0 .337-.112.673-.224 1.009 0 0 0 .112-.112.112 2.576.112 3.696.56 4.481.896.112-.448.224-1.12.224-2.24 0-1.233-.336-6.274-6.722-6.274h-8.065v22.628h10.418c1.008 0 1.904-.112 2.688-.336.896-.224 1.569-.56 2.241-1.12.672-.56 1.12-1.232 1.568-2.016.336-.896.56-1.905.56-3.137 0-1.568-.56-3.696-2.128-5.153zM4.713 6.665c4.34-3.789 10.926-3.711 15.186.345 4.506 4.29 4.681 11.442.382 15.96-4.147 4.356-10.964 4.67-15.501.796l3.255-3.419a6.573 6.573 0 008.837-.623c2.505-2.632 2.413-6.8-.219-9.305a6.58 6.58 0 00-8.51-.488l-3.43-3.265z"
    fill="CurrentColor" />
  <path d="M7.245 11.76L3.583 8.1.013 11.64 3.677 15.3 0 18.948 3.555 22.5l3.676-3.647 3.569-3.539-3.555-3.553z"
    fill="#01DB83" />
</svg>