<svg xmlns="http://www.w3.org/2000/svg" fill="none" viewBox="0 0 317 101" class="prefix__h-14">
  <g clip-path="url(#prefix__clip0_3353_189)">
    <rect width="50" height="50" x="16" y="23" fill="#ECEDEA" rx="8" />
    <path fill="#FC4A55" fill-rule="evenodd"
      d="M67.5 119c24.577 0 44.5-19.923 44.5-44.5S92.077 30 67.5 30 23 49.923 23 74.5 42.923 119 67.5 119zm0-4.45c22.119 0 40.05-17.931 40.05-40.05 0-22.119-17.931-40.05-40.05-40.05-22.119 0-40.05 17.931-40.05 40.05 0 22.119 17.931 40.05 40.05 40.05z"
      clip-rule="evenodd" />
    <path fill="#FFB045" fill-rule="evenodd"
      d="M67.5 114.55c22.12 0 40.05-17.93 40.05-40.05 0-22.119-17.93-40.05-40.05-40.05-22.119 0-40.05 17.931-40.05 40.05 0 22.12 17.931 40.05 40.05 40.05zm0-4.45c19.662 0 35.6-15.938 35.6-35.6 0-19.661-15.938-35.6-35.6-35.6-19.661 0-35.6 15.939-35.6 35.6 0 19.662 15.939 35.6 35.6 35.6z"
      clip-rule="evenodd" />
    <path fill="#FFFA6D" fill-rule="evenodd"
      d="M67.5 110.1c19.661 0 35.6-15.939 35.6-35.6S87.161 38.9 67.5 38.9 31.9 54.839 31.9 74.5s15.939 35.6 35.6 35.6zm0-4.45c17.204 0 31.15-13.946 31.15-31.15S84.704 43.35 67.5 43.35 36.35 57.296 36.35 74.5s13.946 31.15 31.15 31.15z"
      clip-rule="evenodd" />
    <path fill="#3BA9FE" fill-rule="evenodd"
      d="M67.5 101.2c14.746 0 26.7-11.954 26.7-26.7 0-14.746-11.954-26.7-26.7-26.7-14.746 0-26.7 11.954-26.7 26.7 0 14.746 11.954 26.7 26.7 26.7zm0-4.45c12.288 0 22.25-9.962 22.25-22.25S79.788 52.25 67.5 52.25 45.25 62.212 45.25 74.5s9.962 22.25 22.25 22.25z"
      clip-rule="evenodd" />
    <path fill="#965DED" fill-rule="evenodd"
      d="M67.5 96.75c12.288 0 22.25-9.962 22.25-22.25S79.788 52.25 67.5 52.25 45.25 62.212 45.25 74.5s9.962 22.25 22.25 22.25zm0-4.45c9.83 0 17.8-7.97 17.8-17.8 0-9.83-7.97-17.8-17.8-17.8-9.83 0-17.8 7.97-17.8 17.8 0 9.83 7.97 17.8 17.8 17.8z"
      clip-rule="evenodd" />
    <path fill="#30FD2F" fill-rule="evenodd"
      d="M67.5 105.65c17.204 0 31.15-13.946 31.15-31.15S84.704 43.35 67.5 43.35 36.35 57.296 36.35 74.5s13.946 31.15 31.15 31.15zm0-4.45c14.746 0 26.7-11.954 26.7-26.7 0-14.746-11.954-26.7-26.7-26.7-14.746 0-26.7 11.954-26.7 26.7 0 14.746 11.954 26.7 26.7 26.7z"
      clip-rule="evenodd" />
    <path fill="currentColor"
      d="M26.215 29.355a.3.3 0 01.57 0l.887 2.664a.3.3 0 00.17.183l2.483 1.02a.3.3 0 010 .556l-2.482 1.02a.3.3 0 00-.171.183l-.887 2.664a.3.3 0 01-.57 0l-.887-2.664a.3.3 0 00-.17-.183l-2.483-1.02a.3.3 0 010-.556l2.482-1.02a.3.3 0 00.171-.183l.887-2.664zM21.213 43.43a.3.3 0 01.574 0l.348 1.13a.3.3 0 00.165.185l1.082.48a.3.3 0 010 .55l-1.082.48a.3.3 0 00-.165.186l-.348 1.13a.3.3 0 01-.574 0l-.348-1.13a.3.3 0 00-.165-.186l-1.082-.48a.3.3 0 010-.55l1.082-.48a.3.3 0 00.165-.186l.348-1.13z" />
  </g>
  <path fill="currentColor"
    d="M83.77 64.805L81.728 37.35h5.48l1.202 21.322h.24L96.141 40.2h6.08l1.829 18.473h.24l7.638-21.322h5.4L106.77 64.805h-6.6L98.209 46.41h-.24L90.33 64.805h-6.56zm43.968-21.757c7.08 0 8.974 2.571 8.333 6.843l-2.237 14.914h-4.44l-.11-2.73c-1.359 1.86-4.189 3.125-7.669 3.125-4.92 0-7.08-2.136-6.433-6.448.754-5.024 4.181-6.804 9.781-6.804h5.8l.142-.95c.38-2.53-.31-3.797-4.31-3.797-1.56 0-3.104.159-4.706.435l.635-4.232c1.682-.277 3.654-.356 5.214-.356zm-4.462 18.275c3.04 0 5.338-1.186 6.537-3.045l.422-2.81h-5.12c-3.16 0-4.569.594-4.949 3.126-.279 1.86.59 2.73 3.11 2.73zm14.953 11.393l.641-4.272c3.68 0 5.264-1.227 6.444-3.758l-5.334-21.243h5.52l3.231 16.06h.24l7.689-16.06h5.28l-10.373 19.819c-3.586 6.843-6.178 9.454-13.338 9.454zm36.658-25.317h-4.76l-1.542 10.285c-.416 2.77-.076 3.442 2.164 3.442.76 0 1.366-.04 1.989-.198l-.587 3.916c-.858.119-1.79.198-2.71.198-5.16 0-6.758-1.345-5.916-6.962l1.602-10.68h-3l.594-3.957h3l.759-5.063h5l-.759 5.063h4.76l-.594 3.956zM185.321 65.2c-6.56 0-9.998-2.413-8.699-11.076 1.3-8.663 5.461-11.076 12.021-11.076 6.6 0 10.039 2.413 8.739 11.076-1.299 8.663-5.461 11.076-12.061 11.076zm.575-3.837c4 0 5.496-1.701 6.326-7.24.831-5.537-.188-7.278-4.148-7.278-3.96 0-5.461 1.74-6.292 7.279-.83 5.538.234 7.239 4.114 7.239zm34.33 3.442l-1.468-7.28h-11.6l-3.732 7.28h-5.4l14.517-27.454h7.04l6.203 27.454h-5.56zm-10.856-11.63h8.48l-2.281-11.195h-.48l-5.719 11.195zM241.265 65.2c-8.4 0-13.049-2.61-11.322-14.122 1.59-10.601 7.318-14.122 15.838-14.122 2.52 0 5.747.356 7.212.989l-.689 4.589c-1.927-.752-4.274-1.108-6.834-1.108-5.64 0-8.748 2.057-9.887 9.652-1.205 8.03 1.02 9.731 6.74 9.731 1.24 0 2.486-.04 3.528-.316l1.02-6.804h-5l.653-4.352h9.92l-2.201 14.676c-2.175.633-5.498 1.187-8.978 1.187zm14.996-.395l4.118-27.454h5.24l-4.118 27.454h-5.24z" />
  <defs>
    <clipPath id="prefix__clip0_3353_189">
      <rect width="50" height="50" x="16" y="23" fill="#fff" rx="8" />
    </clipPath>
  </defs>
</svg>