<svg viewBox="0 0 40 20" fill="none" xmlns="http://www.w3.org/2000/svg">
  <path fill-rule="evenodd" clip-rule="evenodd"
    d="M5.33333 4.06667C5.33333 1.82071 3.51262 0 1.26667 0H0V13.8333C0 17.2391 2.7609 20 6.16667 20C9.57243 20 12.3333 17.2391 12.3333 13.8333V12.0333H12.3337V6.73333C12.3337 4.85557 13.8559 3.33333 15.7337 3.33333C17.6114 3.33333 19.1337 4.85557 19.1337 6.73333V17.3333C19.1337 18.8061 20.3276 20 21.8003 20H24.7337V7.03333C24.7337 3.14893 21.5847 0 17.7003 0C13.8159 0 10.667 3.14893 10.667 7.03333V8.01667H10.6667V14C10.6667 15.4728 9.47275 16.6667 8 16.6667C6.52725 16.6667 5.33333 15.4728 5.33333 14V4.06667ZM25.5869 3.4913C27.2187 4.77285 28.3003 6.76385 28.3003 8.99967V17.333C28.3003 18.8058 29.4942 19.9997 30.967 19.9997H33.3336V9.66634C33.3336 9.44118 33.3219 9.21877 33.299 8.99967C32.9658 5.81523 30.2729 3.33301 27.0003 3.33301C26.5435 3.33301 26.0981 3.38136 25.6688 3.47322C25.6414 3.47907 25.6141 3.4851 25.5869 3.4913Z"
    fill="currentColor"></path>
</svg>