<svg xmlns="http://www.w3.org/2000/svg" viewBox="0 0 1500 1500" version="1.0">
  <defs>
    <clipPath id="prefix__a">
      <path d="M118.348 117.219H1383.75V1383H118.348zm0 0" />
    </clipPath>
    <clipPath id="prefix__b">
      <path
        d="M173.098 117.219H1329c14.52 0 28.445 5.77 38.715 16.035a54.765 54.765 0 0116.035 38.715V1328.03c0 14.52-5.77 28.446-16.035 38.715a54.765 54.765 0 01-38.715 16.035H173.098a54.765 54.765 0 01-38.715-16.035 54.765 54.765 0 01-16.035-38.715V171.97c0-14.52 5.77-28.446 16.035-38.715a54.765 54.765 0 0138.715-16.035zm0 0" />
    </clipPath>
    <clipPath id="prefix__d">
      <path d="M.348.219H1265.75v1265.66H.348zm0 0" />
    </clipPath>
    <clipPath id="prefix__e">
      <path
        d="M55.098.219H1211c14.52 0 28.445 5.77 38.715 16.035a54.765 54.765 0 0116.035 38.715V1211.03c0 14.52-5.77 28.446-16.035 38.715a54.765 54.765 0 01-38.715 16.035H55.098a54.765 54.765 0 01-38.715-16.035 54.765 54.765 0 01-16.035-38.715V54.97c0-14.52 5.77-28.446 16.035-38.715A54.765 54.765 0 0155.098.219zm0 0" />
    </clipPath>
    <clipPath id="prefix__c">
      <path d="M0 0h1266v1266H0z" />
    </clipPath>
    <clipPath id="prefix__f">
      <path d="M0 0h1137v1500H0z" />
    </clipPath>
  </defs>
  <g clip-path="url(#prefix__a)">
    <g clip-path="url(#prefix__b)">
      <g clip-path="url(#prefix__c)" transform="translate(118 117)">
        <g clip-path="url(#prefix__d)">
          <g clip-path="url(#prefix__e)">
            <path fill="#ec1c14" d="M.348.219H1265.75V1265.62H.348zm0 0" />
          </g>
        </g>
      </g>
    </g>
  </g>
  <g clip-path="url(#prefix__f)" transform="translate(195)">
    <path
      d="M798.27 261.866c-2.231 2.23-5.938 6.12-11.126 11.672-5.18 5.554-8.136 10.183-8.875 13.89v322.219c0 7.406 3.703 11.11 11.11 11.11 29.625 0 52.953-4.813 69.984-14.438 17.04-9.633 30.375-20.375 40-32.219 9.633-11.851 17.414-22.594 23.344-32.219 5.926-9.632 12.96-14.453 21.11-14.453 2.226 0 9.452 4.633 21.671 13.89 12.219 9.263 25.176 20 38.875 32.22 13.707 12.218 26.488 23.886 38.344 35 11.851 11.117 18.89 18.152 21.11 21.109-1.481 5.93-5.923 8.89-13.329 8.89h-711.11c-3.71 0-5.562-1.85-5.562-5.562 0-3.695 1.852-5.547 5.563-5.547h280c7.406 0 11.109-3.703 11.109-11.11V249.648c0-7.406 3.703-11.11 11.11-11.11 7.406 0 17.956.372 31.656 1.11 13.707.742 28.156 1.855 43.343 3.344 15.188 1.48 29.446 3.148 42.782 5 13.332 1.844 23.332 3.883 30 6.11 5.925 1.48 8.89 4.07 8.89 7.765zM606.034 447.428c-1.48 1.48-6.664 2.407-15.547 2.782-8.887.367-18.703.546-29.453.546-10.742 0-20.922-.18-30.547-.546-9.625-.375-15.922-.563-18.89-.563-5.188 0-14.45 5.93-27.782 17.781-13.336 11.856-27.226 25.008-41.672 39.453-14.437 14.438-27.953 27.586-40.547 39.438-12.593 11.855-20.742 17.781-24.437 17.781-2.969 0-4.824-1.297-5.563-3.89-.742-2.594-1.109-5.004-1.109-7.235 0-38.508 6.11-76.098 18.328-112.765a2360.367 2360.367 0 0033.89-110.563c2.97-10.363 5.192-20.547 6.673-30.547 1.476-10 3.703-20.187 6.672-30.562 1.476-7.407 4.812-11.11 10-11.11 5.175 0 16.28 2.407 33.312 7.219 17.04 4.813 34.633 10.555 52.781 17.219 18.157 6.668 34.27 13.336 48.344 20 14.07 6.668 21.11 11.484 21.11 14.453 0 2.219-3.704 7.777-11.11 16.672-7.406 8.886-15.371 19.07-23.89 30.547a529.014 529.014 0 00-23.891 35c-7.406 11.855-11.11 21.484-11.11 28.89 0 6.668 3.883 10.371 11.657 11.11 7.78.742 16.3.93 25.562.562 9.258-.375 17.774-.375 25.547 0 7.781.367 11.672 3.14 11.672 8.328zM96.05 291.866c0-7.406 3.332-11.11 10-11.11 18.507 0 39.43 2.965 62.765 8.891 23.332 5.93 45 14.633 65 26.11 20 11.48 36.848 25.93 50.547 43.343 13.707 17.406 20.563 37.219 20.563 59.438 0 21.48-6.11 40.183-18.329 56.109-12.218 15.93-29.812 23.89-52.78 23.89-11.106 0-24.622-8.702-40.548-26.109-15.93-17.406-31.117-37.773-45.562-61.11-14.438-23.331-26.656-46.476-36.656-69.437-10-22.968-15-39.64-15-50.015zM807.16 446.319c-1.492 0-2.977-.367-4.453-1.11-.742 0-1.297-.18-1.672-.546-.367-.375-.918-.563-1.656-.563-.743 0-1.48-.375-2.22-1.125 0-2.957 2.587-5.363 7.767-7.219 5.187-1.851 11.113-3.703 17.78-5.546a1638.264 1638.264 0 0120.548-5.563c7.039-1.852 12.414-4.629 16.125-8.328 2.957-2.969 7.03-8.524 12.218-16.672a477.577 477.577 0 0116.672-24.437c5.926-8.157 11.477-15.567 16.657-22.235 5.187-6.664 9.632-10 13.343-10 2.957 0 10.914 4.82 23.875 14.453 12.969 9.625 26.672 20.184 41.11 31.672 14.445 11.48 27.226 22.59 38.343 33.328 11.114 10.742 16.672 17.219 16.672 19.438 0 2.23-1.117 3.715-3.343 4.453zM346.05 750.756c-.75 4.45-3.718 7.602-8.906 9.454-5.18 1.843-10.73 3.511-16.656 5-5.93 1.48-11.297 3.703-16.11 6.671-4.812 2.961-7.218 8.141-7.218 15.547v236.657c0 4.449-4.262 13.34-12.781 26.671-8.524 13.336-19.266 29.079-32.235 47.235-12.96 18.148-27.215 37.219-42.765 57.219-15.555 20-30.555 38.332-45 55-14.45 16.664-27.043 30.55-37.782 41.656-10.742 11.113-17.59 17.039-20.546 17.781l-2.235-1.11c-2.219-5.187-7.031-15.007-14.437-29.452a76750.922 76750.922 0 01-23.344-45.547c-8.149-15.926-15.371-30.368-21.672-43.328-6.293-12.97-9.437-20.563-9.437-22.782 0-4.445 6.664-8.52 20-12.218 13.332-3.708 28.144-7.598 44.437-11.672 16.3-4.07 31.117-8.332 44.453-12.782 13.332-4.445 20-9.257 20-14.437v-318.89c0-8.145-6.668-12.407-20-12.782-13.336-.375-27.777-.004-43.328 1.11-15.555 1.117-29.996 1.859-43.328 2.234-13.336.367-20-2.785-20-9.453 0-2.22 1.289-3.696 3.875-4.438 2.594-.75 4.266-1.492 5.016-2.234 14.812-3.696 30.734-4.617 47.765-2.766 17.04 1.844 32.969 2.766 47.781 2.766 2.97 0 7.598-4.07 13.891-12.219 6.29-8.145 12.77-17.586 19.438-28.328 6.664-10.738 12.96-20.922 18.89-30.547 5.926-9.633 10.004-16.305 12.235-20.016l5.546-2.218c5.188 1.48 14.446 7.406 27.782 17.78 13.332 10.368 27.586 21.665 42.765 33.892 15.188 12.218 28.89 24.257 41.11 36.109 12.226 11.844 19.828 19.992 22.797 24.437zm472.22-4.437l61.109-61.11 6.656-2.234c3.707 1.492 12.039 6.68 25 15.563 12.969 8.886 26.672 18.886 41.11 30 14.445 11.117 27.226 21.484 38.343 31.109 11.113 9.625 16.672 15.184 16.672 16.672 0 2.96-1.668 5.734-5 8.328-3.336 2.594-7.043 5.188-11.125 7.781-4.074 2.594-7.777 5.188-11.11 7.782-3.335 2.585-5 5.73-5 9.437v228.89c0 5.93-5.558 10.93-16.671 15-11.106 4.075-23.696 7.407-37.766 10-14.074 2.594-27.965 4.45-41.672 5.563-13.7 1.106-22.773 1.656-27.219 1.656-5.93 0-9.632-3.703-11.109-11.109-1.48-8.145-1.852-16.477-1.11-25 .739-8.52 0-16.852-2.218-25-.75-2.219-1.867-5.363-3.344-9.437-1.48-4.083-2.219-7.235-2.219-9.454 0-3.695.926-7.582 2.782-11.656 1.851-4.082 2.78-7.973 2.78-11.672V782.975c0-7.406-3.71-11.11-11.124-11.11H581.597c-7.406 0-11.109 3.704-11.109 11.11v188.89c0 7.407 3.703 11.11 11.11 11.11h120.546c25.563 0 49.082.188 70.563.563 21.476.367 34.07.922 37.781 1.672-1.48 1.48-3.516 3.328-6.11 5.546-2.593 2.22-5 3.329-7.218 3.329H586.035c-6.668 0-11.11 2.78-13.328 8.343-2.219 5.555-4.258 11.852-6.11 18.89-1.855 7.032-4.449 14.25-7.78 21.657-3.337 7.406-9.075 13.336-17.22 17.781-3.71 1.48-11.492 4.262-23.343 8.344-11.844 4.074-24.25 7.406-37.22 10-12.96 2.586-24.624 4.063-35 4.438-10.366.367-15.546-2.04-15.546-7.22V709.648c0-2.957.55-5.734 1.656-8.328 1.114-2.594 3.524-3.89 7.235-3.89 2.957 0 9.437 2.777 19.437 8.327 10 5.555 21.848 11.48 35.547 17.782 13.707 6.293 27.969 12.218 42.781 17.78 14.82 5.556 28.532 8.329 41.125 8.329h232.219zm-225.563 507.766c-23.7 0-51.293-3.704-82.781-11.11-31.48-7.406-61.665-18.515-90.547-33.328-28.887-14.812-53.328-33.145-73.328-55-20-21.852-30-47.223-30-76.11 0-6.663 3.703-10 11.109-10 8.883 0 19.254 2.407 31.11 7.22 11.85 4.812 24.445 10.37 37.78 16.671a954.737 954.737 0 0040 17.782c13.333 5.554 26.29 9.07 38.876 10.546 23.707 2.97 47.226 4.454 70.562 4.454 23.332 0 46.848.37 70.547 1.109 87.414 2.219 175.566 3.328 264.453 3.328 22.957 0 45.734-.367 68.328-1.11 22.594-.738 45.375-.738 68.344 0 2.219 0 5.363.188 9.437.563 4.07.367 6.11 2.402 6.11 6.11 0 2.96-.742 5.18-2.219 6.656-1.48 1.48-2.965 3.336-4.453 5.562-12.586 14.813-22.586 30.735-30 47.766a1571.13 1571.13 0 01-23.328 51.125c-2.961 5.176-6.293 7.766-10 7.766zm0 0"
      fill="currentColor" />
  </g>
</svg>