<svg xmlns="http://www.w3.org/2000/svg" xmlns:xlink="http://www.w3.org/1999/xlink" width="8000" zoomAndPan="magnify" viewBox="0 0 6000 1499.999933" height="2000" preserveAspectRatio="xMidYMid meet" version="1.0"><metadata/><defs><g/><clipPath id="da44a24d9d"><path d="M 118.347656 117.21875 L 1383.75 117.21875 L 1383.75 1383 L 118.347656 1383 Z M 118.347656 117.21875 " clip-rule="nonzero"/></clipPath><clipPath id="0a80f90a0b"><path d="M 173.097656 117.21875 L 1329 117.21875 C 1343.519531 117.21875 1357.445312 122.988281 1367.714844 133.253906 C 1377.980469 143.523438 1383.75 157.449219 1383.75 171.96875 L 1383.75 1328.03125 C 1383.75 1342.550781 1377.980469 1356.476562 1367.714844 1366.746094 C 1357.445312 1377.011719 1343.519531 1382.78125 1329 1382.78125 L 173.097656 1382.78125 C 158.578125 1382.78125 144.652344 1377.011719 134.382812 1366.746094 C 124.117188 1356.476562 118.347656 1342.550781 118.347656 1328.03125 L 118.347656 171.96875 C 118.347656 157.449219 124.117188 143.523438 134.382812 133.253906 C 144.652344 122.988281 158.578125 117.21875 173.097656 117.21875 Z M 173.097656 117.21875 " clip-rule="nonzero"/></clipPath><clipPath id="38cdaf1c4b"><path d="M 0.347656 0.21875 L 1265.75 0.21875 L 1265.75 1265.878906 L 0.347656 1265.878906 Z M 0.347656 0.21875 " clip-rule="nonzero"/></clipPath><clipPath id="d5c05f3cf0"><path d="M 55.097656 0.21875 L 1211 0.21875 C 1225.519531 0.21875 1239.445312 5.988281 1249.714844 16.253906 C 1259.980469 26.523438 1265.75 40.449219 1265.75 54.96875 L 1265.75 1211.03125 C 1265.75 1225.550781 1259.980469 1239.476562 1249.714844 1249.746094 C 1239.445312 1260.011719 1225.519531 1265.78125 1211 1265.78125 L 55.097656 1265.78125 C 40.578125 1265.78125 26.652344 1260.011719 16.382812 1249.746094 C 6.117188 1239.476562 0.347656 1225.550781 0.347656 1211.03125 L 0.347656 54.96875 C 0.347656 40.449219 6.117188 26.523438 16.382812 16.253906 C 26.652344 5.988281 40.578125 0.21875 55.097656 0.21875 Z M 55.097656 0.21875 " clip-rule="nonzero"/></clipPath><clipPath id="4661d6d238"><rect x="0" width="1266" y="0" height="1266"/></clipPath><clipPath id="91a19f5cd4"><rect x="0" width="1137" y="0" height="1500"/></clipPath></defs><g clip-path="url(#da44a24d9d)"><g clip-path="url(#0a80f90a0b)"><g transform="matrix(1, 0, 0, 1, 118, 117)"><g clip-path="url(#4661d6d238)"><g clip-path="url(#38cdaf1c4b)"><g clip-path="url(#d5c05f3cf0)"><path fill="#ec1c14" d="M 0.347656 0.21875 L 1265.75 0.21875 L 1265.75 1265.621094 L 0.347656 1265.621094 Z M 0.347656 0.21875 " fill-opacity="1" fill-rule="nonzero"/></g></g></g></g></g></g><g transform="matrix(1, 0, 0, 1, 195, 0.000000000000112861)"><g clip-path="url(#91a19f5cd4)"><g fill="#ffffff" fill-opacity="1"><g transform="translate(0.488027, 1179.647028)"><g><path d="M 797.78125 -917.78125 C 795.550781 -915.550781 791.84375 -911.660156 786.65625 -906.109375 C 781.476562 -900.554688 778.519531 -895.925781 777.78125 -892.21875 L 777.78125 -570 C 777.78125 -562.59375 781.484375 -558.890625 788.890625 -558.890625 C 818.515625 -558.890625 841.84375 -563.703125 858.875 -573.328125 C 875.914062 -582.960938 889.25 -593.703125 898.875 -605.546875 C 908.507812 -617.398438 916.289062 -628.140625 922.21875 -637.765625 C 928.144531 -647.398438 935.179688 -652.21875 943.328125 -652.21875 C 945.554688 -652.21875 952.78125 -647.585938 965 -638.328125 C 977.21875 -629.066406 990.175781 -618.328125 1003.875 -606.109375 C 1017.582031 -593.890625 1030.363281 -582.222656 1042.21875 -571.109375 C 1054.070312 -559.992188 1061.109375 -552.957031 1063.328125 -550 C 1061.847656 -544.070312 1057.40625 -541.109375 1050 -541.109375 L 338.890625 -541.109375 C 335.179688 -541.109375 333.328125 -542.960938 333.328125 -546.671875 C 333.328125 -550.367188 335.179688 -552.21875 338.890625 -552.21875 L 618.890625 -552.21875 C 626.296875 -552.21875 630 -555.921875 630 -563.328125 L 630 -930 C 630 -937.40625 633.703125 -941.109375 641.109375 -941.109375 C 648.515625 -941.109375 659.066406 -940.738281 672.765625 -940 C 686.472656 -939.257812 700.921875 -938.144531 716.109375 -936.65625 C 731.296875 -935.175781 745.554688 -933.507812 758.890625 -931.65625 C 772.222656 -929.8125 782.222656 -927.773438 788.890625 -925.546875 C 794.816406 -924.066406 797.78125 -921.476562 797.78125 -917.78125 Z M 605.546875 -732.21875 C 604.066406 -730.738281 598.882812 -729.8125 590 -729.4375 C 581.113281 -729.070312 571.296875 -728.890625 560.546875 -728.890625 C 549.804688 -728.890625 539.625 -729.070312 530 -729.4375 C 520.375 -729.8125 514.078125 -730 511.109375 -730 C 505.921875 -730 496.660156 -724.070312 483.328125 -712.21875 C 469.992188 -700.363281 456.101562 -687.210938 441.65625 -672.765625 C 427.21875 -658.328125 413.703125 -645.179688 401.109375 -633.328125 C 388.515625 -621.472656 380.367188 -615.546875 376.671875 -615.546875 C 373.703125 -615.546875 371.847656 -616.84375 371.109375 -619.4375 C 370.367188 -622.03125 370 -624.441406 370 -626.671875 C 370 -665.179688 376.109375 -702.769531 388.328125 -739.4375 C 400.554688 -776.101562 411.851562 -812.957031 422.21875 -850 C 425.1875 -860.363281 427.410156 -870.546875 428.890625 -880.546875 C 430.367188 -890.546875 432.59375 -900.734375 435.5625 -911.109375 C 437.039062 -918.515625 440.375 -922.21875 445.5625 -922.21875 C 450.738281 -922.21875 461.84375 -919.8125 478.875 -915 C 495.914062 -910.1875 513.507812 -904.445312 531.65625 -897.78125 C 549.8125 -891.113281 565.925781 -884.445312 580 -877.78125 C 594.070312 -871.113281 601.109375 -866.296875 601.109375 -863.328125 C 601.109375 -861.109375 597.40625 -855.550781 590 -846.65625 C 582.59375 -837.769531 574.628906 -827.585938 566.109375 -816.109375 C 557.585938 -804.628906 549.625 -792.960938 542.21875 -781.109375 C 534.8125 -769.253906 531.109375 -759.625 531.109375 -752.21875 C 531.109375 -745.550781 534.992188 -741.847656 542.765625 -741.109375 C 550.546875 -740.367188 559.066406 -740.179688 568.328125 -740.546875 C 577.585938 -740.921875 586.101562 -740.921875 593.875 -740.546875 C 601.65625 -740.179688 605.546875 -737.40625 605.546875 -732.21875 Z M 95.5625 -887.78125 C 95.5625 -895.1875 98.894531 -898.890625 105.5625 -898.890625 C 124.070312 -898.890625 144.992188 -895.925781 168.328125 -890 C 191.660156 -884.070312 213.328125 -875.367188 233.328125 -863.890625 C 253.328125 -852.410156 270.175781 -837.960938 283.875 -820.546875 C 297.582031 -803.140625 304.4375 -783.328125 304.4375 -761.109375 C 304.4375 -739.628906 298.328125 -720.925781 286.109375 -705 C 273.890625 -689.070312 256.296875 -681.109375 233.328125 -681.109375 C 222.222656 -681.109375 208.707031 -689.8125 192.78125 -707.21875 C 176.851562 -724.625 161.664062 -744.992188 147.21875 -768.328125 C 132.78125 -791.660156 120.5625 -814.804688 110.5625 -837.765625 C 100.5625 -860.734375 95.5625 -877.40625 95.5625 -887.78125 Z M 806.671875 -733.328125 C 805.179688 -733.328125 803.695312 -733.695312 802.21875 -734.4375 C 801.476562 -734.4375 800.921875 -734.617188 800.546875 -734.984375 C 800.179688 -735.359375 799.628906 -735.546875 798.890625 -735.546875 C 798.148438 -735.546875 797.410156 -735.921875 796.671875 -736.671875 C 796.671875 -739.628906 799.257812 -742.035156 804.4375 -743.890625 C 809.625 -745.742188 815.550781 -747.59375 822.21875 -749.4375 C 828.882812 -751.289062 835.734375 -753.144531 842.765625 -755 C 849.804688 -756.851562 855.179688 -759.628906 858.890625 -763.328125 C 861.847656 -766.296875 865.921875 -771.851562 871.109375 -780 C 876.296875 -788.144531 881.851562 -796.289062 887.78125 -804.4375 C 893.707031 -812.59375 899.257812 -820.003906 904.4375 -826.671875 C 909.625 -833.335938 914.070312 -836.671875 917.78125 -836.671875 C 920.738281 -836.671875 928.695312 -831.851562 941.65625 -822.21875 C 954.625 -812.59375 968.328125 -802.035156 982.765625 -790.546875 C 997.210938 -779.066406 1009.992188 -767.957031 1021.109375 -757.21875 C 1032.222656 -746.476562 1037.78125 -740 1037.78125 -737.78125 C 1037.78125 -735.550781 1036.664062 -734.066406 1034.4375 -733.328125 Z M 345.5625 -428.890625 C 344.8125 -424.441406 341.84375 -421.289062 336.65625 -419.4375 C 331.476562 -417.59375 325.925781 -415.925781 320 -414.4375 C 314.070312 -412.957031 308.703125 -410.734375 303.890625 -407.765625 C 299.078125 -404.804688 296.671875 -399.625 296.671875 -392.21875 L 296.671875 -155.5625 C 296.671875 -151.113281 292.410156 -142.222656 283.890625 -128.890625 C 275.367188 -115.554688 264.625 -99.8125 251.65625 -81.65625 C 238.695312 -63.507812 224.441406 -44.4375 208.890625 -24.4375 C 193.335938 -4.4375 178.335938 13.894531 163.890625 30.5625 C 149.441406 47.226562 136.847656 61.113281 126.109375 72.21875 C 115.367188 83.332031 108.519531 89.257812 105.5625 90 L 103.328125 88.890625 C 101.109375 83.703125 96.296875 73.882812 88.890625 59.4375 C 81.484375 45 73.703125 29.816406 65.546875 13.890625 C 57.398438 -2.035156 50.175781 -16.476562 43.875 -29.4375 C 37.582031 -42.40625 34.4375 -50 34.4375 -52.21875 C 34.4375 -56.664062 41.101562 -60.738281 54.4375 -64.4375 C 67.769531 -68.144531 82.582031 -72.035156 98.875 -76.109375 C 115.175781 -80.179688 129.992188 -84.441406 143.328125 -88.890625 C 156.660156 -93.335938 163.328125 -98.148438 163.328125 -103.328125 L 163.328125 -422.21875 C 163.328125 -430.363281 156.660156 -434.625 143.328125 -435 C 129.992188 -435.375 115.550781 -435.003906 100 -433.890625 C 84.445312 -432.773438 70.003906 -432.03125 56.671875 -431.65625 C 43.335938 -431.289062 36.671875 -434.441406 36.671875 -441.109375 C 36.671875 -443.328125 37.960938 -444.804688 40.546875 -445.546875 C 43.140625 -446.296875 44.8125 -447.039062 45.5625 -447.78125 C 60.375 -451.476562 76.296875 -452.398438 93.328125 -450.546875 C 110.367188 -448.703125 126.296875 -447.78125 141.109375 -447.78125 C 144.078125 -447.78125 148.707031 -451.851562 155 -460 C 161.289062 -468.144531 167.769531 -477.585938 174.4375 -488.328125 C 181.101562 -499.066406 187.398438 -509.25 193.328125 -518.875 C 199.253906 -528.507812 203.332031 -535.179688 205.5625 -538.890625 L 211.109375 -541.109375 C 216.296875 -539.628906 225.554688 -533.703125 238.890625 -523.328125 C 252.222656 -512.960938 266.476562 -501.664062 281.65625 -489.4375 C 296.84375 -477.21875 310.546875 -465.179688 322.765625 -453.328125 C 334.992188 -441.484375 342.59375 -433.335938 345.5625 -428.890625 Z M 817.78125 -433.328125 L 878.890625 -494.4375 L 885.546875 -496.671875 C 889.253906 -495.179688 897.585938 -489.992188 910.546875 -481.109375 C 923.515625 -472.222656 937.21875 -462.222656 951.65625 -451.109375 C 966.101562 -439.992188 978.882812 -429.625 990 -420 C 1001.113281 -410.375 1006.671875 -404.816406 1006.671875 -403.328125 C 1006.671875 -400.367188 1005.003906 -397.59375 1001.671875 -395 C 998.335938 -392.40625 994.628906 -389.8125 990.546875 -387.21875 C 986.472656 -384.625 982.769531 -382.03125 979.4375 -379.4375 C 976.101562 -376.851562 974.4375 -373.707031 974.4375 -370 L 974.4375 -141.109375 C 974.4375 -135.179688 968.878906 -130.179688 957.765625 -126.109375 C 946.660156 -122.035156 934.070312 -118.703125 920 -116.109375 C 905.925781 -113.515625 892.035156 -111.660156 878.328125 -110.546875 C 864.628906 -109.441406 855.554688 -108.890625 851.109375 -108.890625 C 845.179688 -108.890625 841.476562 -112.59375 840 -120 C 838.519531 -128.144531 838.148438 -136.476562 838.890625 -145 C 839.628906 -153.519531 838.890625 -161.851562 836.671875 -170 C 835.921875 -172.21875 834.804688 -175.363281 833.328125 -179.4375 C 831.847656 -183.519531 831.109375 -186.671875 831.109375 -188.890625 C 831.109375 -192.585938 832.035156 -196.472656 833.890625 -200.546875 C 835.742188 -204.628906 836.671875 -208.519531 836.671875 -212.21875 L 836.671875 -396.671875 C 836.671875 -404.078125 832.960938 -407.78125 825.546875 -407.78125 L 581.109375 -407.78125 C 573.703125 -407.78125 570 -404.078125 570 -396.671875 L 570 -207.78125 C 570 -200.375 573.703125 -196.671875 581.109375 -196.671875 C 589.253906 -196.671875 604.992188 -196.671875 628.328125 -196.671875 C 651.660156 -196.671875 676.101562 -196.671875 701.65625 -196.671875 C 727.21875 -196.671875 750.738281 -196.484375 772.21875 -196.109375 C 793.695312 -195.742188 806.289062 -195.1875 810 -194.4375 C 808.519531 -192.957031 806.484375 -191.109375 803.890625 -188.890625 C 801.296875 -186.671875 798.890625 -185.5625 796.671875 -185.5625 L 585.546875 -185.5625 C 578.878906 -185.5625 574.4375 -182.78125 572.21875 -177.21875 C 570 -171.664062 567.960938 -165.367188 566.109375 -158.328125 C 564.253906 -151.296875 561.660156 -144.078125 558.328125 -136.671875 C 554.992188 -129.265625 549.253906 -123.335938 541.109375 -118.890625 C 537.398438 -117.410156 529.617188 -114.628906 517.765625 -110.546875 C 505.921875 -106.472656 493.515625 -103.140625 480.546875 -100.546875 C 467.585938 -97.960938 455.921875 -96.484375 445.546875 -96.109375 C 435.179688 -95.742188 430 -98.148438 430 -103.328125 L 430 -470 C 430 -472.957031 430.550781 -475.734375 431.65625 -478.328125 C 432.769531 -480.921875 435.179688 -482.21875 438.890625 -482.21875 C 441.847656 -482.21875 448.328125 -479.441406 458.328125 -473.890625 C 468.328125 -468.335938 480.175781 -462.410156 493.875 -456.109375 C 507.582031 -449.816406 521.84375 -443.890625 536.65625 -438.328125 C 551.476562 -432.773438 565.1875 -430 577.78125 -430 L 810 -430 Z M 592.21875 74.4375 C 568.519531 74.4375 540.925781 70.734375 509.4375 63.328125 C 477.957031 55.921875 447.773438 44.8125 418.890625 30 C 390.003906 15.1875 365.5625 -3.144531 345.5625 -25 C 325.5625 -46.851562 315.5625 -72.222656 315.5625 -101.109375 C 315.5625 -107.773438 319.265625 -111.109375 326.671875 -111.109375 C 335.554688 -111.109375 345.925781 -108.703125 357.78125 -103.890625 C 369.632812 -99.078125 382.226562 -93.519531 395.5625 -87.21875 C 408.894531 -80.925781 422.226562 -75 435.5625 -69.4375 C 448.894531 -63.882812 461.851562 -60.367188 474.4375 -58.890625 C 498.144531 -55.921875 521.664062 -54.4375 545 -54.4375 C 568.332031 -54.4375 591.847656 -54.066406 615.546875 -53.328125 C 702.960938 -51.109375 791.113281 -50 880 -50 C 902.957031 -50 925.734375 -50.367188 948.328125 -51.109375 C 970.921875 -51.847656 993.703125 -51.847656 1016.671875 -51.109375 C 1018.890625 -51.109375 1022.035156 -50.921875 1026.109375 -50.546875 C 1030.179688 -50.179688 1032.21875 -48.144531 1032.21875 -44.4375 C 1032.21875 -41.476562 1031.476562 -39.257812 1030 -37.78125 C 1028.519531 -36.300781 1027.035156 -34.445312 1025.546875 -32.21875 C 1012.960938 -17.40625 1002.960938 -1.484375 995.546875 15.546875 C 988.140625 32.585938 980.363281 49.628906 972.21875 66.671875 C 969.257812 71.847656 965.925781 74.4375 962.21875 74.4375 Z M 592.21875 74.4375 "/></g></g></g></g></g><g fill="#000000" fill-opacity="1"><g transform="translate(1694.580803, 1181.574737)"><g><path d="M 297.78125 130 C 292.59375 130 288.519531 128.148438 285.5625 124.453125 C 278.15625 118.523438 273.335938 113.335938 271.109375 108.890625 C 271.109375 105.179688 271.109375 39.253906 271.109375 -88.890625 C 271.109375 -217.035156 270.738281 -281.109375 270 -281.109375 C 269.257812 -281.109375 262.960938 -275.179688 251.109375 -263.328125 C 239.265625 -251.484375 230.75 -242.597656 225.5625 -236.671875 L 215.5625 -225.5625 C 209.632812 -217.414062 203.707031 -207.785156 197.78125 -196.671875 C 191.851562 -185.554688 187.222656 -178.515625 183.890625 -175.546875 C 180.554688 -172.585938 177.035156 -171.109375 173.328125 -171.109375 C 159.992188 -171.109375 145.550781 -183.703125 130 -208.890625 L 102.21875 -247.78125 L 90 -268.890625 L 88.890625 -273.34375 C 88.890625 -275.5625 90.367188 -277.59375 93.328125 -279.4375 C 96.296875 -281.289062 111.113281 -289.070312 137.78125 -302.78125 C 164.445312 -316.488281 179.445312 -323.894531 182.78125 -325 C 186.113281 -326.113281 195.925781 -330.742188 212.21875 -338.890625 C 228.519531 -347.035156 242.96875 -353.332031 255.5625 -357.78125 L 271.109375 -365.5625 L 273.34375 -587.78125 L 200 -582.234375 C 188.144531 -554.828125 181.847656 -541.125 181.109375 -541.125 C 181.109375 -536.675781 170.367188 -516.671875 148.890625 -481.109375 C 125.929688 -435.929688 107.039062 -413.34375 92.21875 -413.34375 C 89.257812 -413.34375 87.78125 -415.5625 87.78125 -420 C 87.78125 -422.226562 88.519531 -426.304688 90 -432.234375 C 123.332031 -521.117188 140 -604.453125 140 -682.234375 L 135.5625 -742.234375 C 135.5625 -750.378906 140.003906 -754.453125 148.890625 -754.453125 C 151.109375 -754.453125 154.625 -754.082031 159.4375 -753.34375 C 164.257812 -752.601562 169.265625 -750.378906 174.453125 -746.671875 C 175.929688 -745.191406 177.222656 -744.453125 178.328125 -744.453125 C 179.441406 -744.453125 189.628906 -738.15625 208.890625 -725.5625 L 222.21875 -716.671875 C 234.070312 -710.742188 240 -702.96875 240 -693.34375 C 240 -691.125 239.257812 -687.601562 237.78125 -682.78125 C 236.300781 -677.96875 235.191406 -675.5625 234.453125 -675.5625 L 234.453125 -672.234375 L 233.34375 -671.125 L 233.34375 -668.890625 C 233.34375 -668.148438 233.15625 -667.78125 232.78125 -667.78125 C 232.40625 -667.78125 231.847656 -666.296875 231.109375 -663.328125 C 230.367188 -660.367188 227.59375 -652.78125 222.78125 -640.5625 C 217.96875 -628.34375 215.5625 -621.863281 215.5625 -621.125 C 215.5625 -620.375 217.78125 -620 222.21875 -620 C 253.332031 -621.488281 269.628906 -622.601562 271.109375 -623.34375 C 272.597656 -624.082031 273.34375 -706.675781 273.34375 -871.125 L 275.5625 -872.234375 C 277.78125 -872.234375 296.296875 -865.566406 331.109375 -852.234375 L 341.109375 -846.671875 C 366.296875 -836.304688 378.890625 -818.53125 378.890625 -793.34375 C 376.671875 -771.125 375.5625 -715.9375 375.5625 -627.78125 L 390 -630.015625 C 399.632812 -630.753906 405.5625 -631.492188 407.78125 -632.234375 C 416.664062 -635.929688 425.554688 -643.335938 434.453125 -654.453125 C 441.859375 -661.859375 447.785156 -665.5625 452.234375 -665.5625 C 454.453125 -665.5625 457.039062 -662.96875 460 -657.78125 C 485.925781 -633.34375 498.890625 -617.046875 498.890625 -608.890625 C 498.890625 -601.484375 461.484375 -595.929688 386.671875 -592.234375 L 375.5625 -591.125 C 375.5625 -564.457031 374.820312 -518.53125 373.34375 -453.34375 C 373.34375 -433.34375 373.710938 -422.972656 374.453125 -422.234375 L 420 -445.5625 C 445.925781 -457.414062 460.367188 -465.191406 463.328125 -468.890625 C 466.296875 -472.597656 474.445312 -487.785156 487.78125 -514.453125 C 510.007812 -563.335938 521.125 -588.519531 521.125 -590 C 521.125 -591.488281 521.863281 -594.082031 523.34375 -597.78125 C 523.34375 -599.257812 524.082031 -601.113281 525.5625 -603.34375 L 532.234375 -622.234375 L 535.5625 -628.890625 C 536.300781 -631.859375 536.671875 -633.523438 536.671875 -633.890625 C 536.671875 -634.265625 537.78125 -635.929688 540 -638.890625 C 551.851562 -666.304688 565.929688 -708.898438 582.234375 -766.671875 C 588.160156 -787.410156 591.492188 -803.707031 592.234375 -815.5625 C 595.191406 -838.53125 599.265625 -851.679688 604.453125 -855.015625 C 609.640625 -858.347656 614.820312 -860.015625 620 -860.015625 C 628.894531 -860.015625 638.898438 -856.3125 650.015625 -848.90625 L 681.125 -831.125 C 687.050781 -826.675781 693.53125 -822.414062 700.5625 -818.34375 C 707.601562 -814.269531 711.863281 -810.9375 713.34375 -808.34375 C 714.820312 -805.75 715.929688 -801.117188 716.671875 -794.453125 C 716.671875 -784.828125 712.410156 -775.015625 703.890625 -765.015625 C 695.378906 -755.015625 682.972656 -737.050781 666.671875 -711.125 C 665.191406 -708.894531 664.453125 -707.222656 664.453125 -706.109375 C 664.453125 -705.003906 662.785156 -702.046875 659.453125 -697.234375 C 656.117188 -692.421875 654.453125 -689.640625 654.453125 -688.890625 C 654.453125 -688.148438 654.082031 -687.78125 653.34375 -687.78125 L 648.890625 -681.125 C 643.710938 -670.75 638.898438 -662.597656 634.453125 -656.671875 L 798.90625 -657.78125 C 838.15625 -657.78125 860.1875 -658.335938 865 -659.453125 C 869.820312 -660.566406 873.710938 -661.125 876.671875 -661.125 C 887.785156 -664.082031 897.046875 -670.003906 904.453125 -678.890625 C 916.304688 -692.972656 926.675781 -700.015625 935.5625 -700.015625 C 947.414062 -700.015625 962.234375 -692.234375 980.015625 -676.671875 C 993.347656 -664.078125 1003.347656 -654.628906 1010.015625 -648.328125 C 1016.679688 -642.035156 1021.125 -636.851562 1023.34375 -632.78125 C 1025.5625 -628.707031 1026.671875 -625.191406 1026.671875 -622.234375 C 1026.671875 -616.304688 1022.410156 -609.453125 1013.890625 -601.671875 C 1005.378906 -593.890625 1000.378906 -586.476562 998.890625 -579.4375 C 997.410156 -572.40625 996.671875 -553.335938 996.671875 -522.234375 C 996.671875 -482.972656 995.191406 -443.34375 992.234375 -403.34375 L 991.125 -357.78125 L 985.5625 -245.5625 L 975.5625 -137.78125 C 975.5625 -103.707031 972.226562 -81.484375 965.5625 -71.109375 C 964.820312 -71.109375 963.710938 -68.144531 962.234375 -62.21875 C 960.753906 -56.289062 958.53125 -49.625 955.5625 -42.21875 L 948.90625 -25.5625 C 937.789062 11.476562 917.789062 42.222656 888.90625 66.671875 C 885.195312 68.890625 882.972656 70.550781 882.234375 71.65625 C 881.492188 72.769531 877.046875 76.289062 868.890625 82.21875 C 860.742188 88.144531 856.484375 91.476562 856.109375 92.21875 C 855.742188 92.957031 850.75 96.289062 841.125 102.21875 C 821.863281 116.289062 805.195312 123.703125 791.125 124.453125 C 785.9375 124.453125 782.601562 123.523438 781.125 121.671875 C 779.644531 119.816406 778.160156 116.296875 776.671875 111.109375 C 763.335938 71.847656 749.265625 45.734375 734.453125 32.765625 C 719.640625 19.804688 712.234375 10.363281 712.234375 4.4375 C 712.234375 1.476562 713.710938 -0.179688 716.671875 -0.546875 C 719.640625 -0.921875 729.269531 -1.109375 745.5625 -1.109375 L 792.234375 -1.109375 C 803.347656 -1.847656 810.195312 -2.957031 812.78125 -4.4375 C 815.375 -5.925781 819.265625 -10.375 824.453125 -17.78125 C 839.265625 -34.8125 848.523438 -53.328125 852.234375 -73.328125 C 852.234375 -75.554688 853.34375 -80.742188 855.5625 -88.890625 L 866.671875 -140 L 871.125 -173.328125 C 874.820312 -188.890625 877.785156 -210.003906 880.015625 -236.671875 C 880.015625 -244.078125 881.125 -265.554688 883.34375 -301.109375 C 884.820312 -310.003906 885.929688 -331.859375 886.671875 -366.671875 C 887.410156 -401.484375 887.96875 -423.890625 888.34375 -433.890625 C 888.71875 -443.890625 889.085938 -460 889.453125 -482.21875 C 889.828125 -504.445312 890.015625 -517.414062 890.015625 -521.125 L 888.90625 -525.5625 C 888.15625 -525.5625 887.59375 -524.265625 887.21875 -521.671875 C 886.851562 -519.078125 883.894531 -514.628906 878.34375 -508.328125 C 872.789062 -502.035156 866.492188 -489.816406 859.453125 -471.671875 C 852.421875 -453.523438 847.421875 -440.75 844.453125 -433.34375 C 842.972656 -431.113281 842.234375 -429.070312 842.234375 -427.21875 C 842.234375 -425.375 841.488281 -423.523438 840 -421.671875 C 838.519531 -419.816406 837.78125 -418.332031 837.78125 -417.21875 C 837.78125 -416.113281 836.671875 -413.707031 834.453125 -410 L 810.015625 -352.234375 C 808.523438 -349.265625 806.484375 -344.628906 803.890625 -338.328125 C 801.304688 -332.035156 794.085938 -316.664062 782.234375 -292.21875 C 770.378906 -267.78125 763.894531 -255.191406 762.78125 -254.453125 C 761.675781 -253.710938 759.269531 -249.265625 755.5625 -241.109375 L 746.671875 -226.671875 C 746.671875 -225.191406 745.929688 -222.96875 744.453125 -220 C 742.972656 -217.039062 741.863281 -215.191406 741.125 -214.453125 L 703.34375 -156.671875 C 703.34375 -155.191406 694.265625 -142.410156 676.109375 -118.328125 C 657.960938 -94.253906 640.925781 -73.695312 625 -56.65625 C 609.082031 -39.625 596.304688 -25.550781 586.671875 -14.4375 C 580.742188 -9.257812 577.78125 -6.113281 577.78125 -5 C 577.78125 -3.882812 577.410156 -3.328125 576.671875 -3.328125 C 575.929688 -3.328125 570.375 1.484375 560 11.109375 C 549.632812 20.742188 542.039062 27.597656 537.21875 31.671875 C 532.40625 35.742188 526.664062 41.113281 520 47.78125 C 505.925781 61.113281 494.816406 70.003906 486.671875 74.453125 C 486.671875 75.191406 484.632812 76.484375 480.5625 78.328125 C 476.488281 80.179688 473.335938 81.476562 471.109375 82.21875 C 453.335938 93.332031 441.859375 98.890625 436.671875 98.890625 C 434.453125 98.890625 433.34375 98.148438 433.34375 96.671875 C 433.34375 89.265625 438.523438 79.632812 448.890625 67.78125 C 450.367188 67.78125 452.035156 66.113281 453.890625 62.78125 C 455.742188 59.445312 470.003906 42.960938 496.671875 13.328125 C 575.191406 -85.929688 614.453125 -139.632812 614.453125 -147.78125 C 637.410156 -185.5625 657.410156 -222.226562 674.453125 -257.78125 C 684.078125 -278.519531 691.484375 -295.738281 696.671875 -309.4375 C 701.859375 -323.144531 705.378906 -331.847656 707.234375 -335.546875 C 709.085938 -339.253906 714.457031 -352.222656 723.34375 -374.453125 C 744.820312 -433.710938 761.859375 -495.5625 774.453125 -560 C 776.671875 -577.039062 779.816406 -587.78125 783.890625 -592.21875 C 787.972656 -596.664062 793.347656 -598.890625 800.015625 -598.890625 C 812.609375 -598.890625 820.015625 -598.519531 822.234375 -597.78125 C 824.453125 -597.039062 830.191406 -594.078125 839.453125 -588.890625 C 848.710938 -583.710938 854.082031 -580.378906 855.5625 -578.890625 L 857.78125 -577.78125 C 861.488281 -577.78125 870.75 -570.742188 885.5625 -556.671875 L 890.015625 -553.34375 L 888.90625 -587.78125 C 888.90625 -610.75 888.71875 -622.414062 888.34375 -622.78125 C 887.96875 -623.15625 865.742188 -623.34375 821.671875 -623.34375 C 777.597656 -623.34375 750.003906 -623.34375 738.890625 -623.34375 L 694.453125 -621.125 C 675.929688 -620.375 658.519531 -619.8125 642.21875 -619.4375 C 625.925781 -619.070312 616.484375 -618.703125 613.890625 -618.328125 C 611.296875 -617.960938 606.664062 -612.597656 600 -602.234375 L 557.78125 -544.453125 C 554.082031 -539.265625 550.9375 -535.003906 548.34375 -531.671875 C 545.75 -528.335938 544.453125 -526.300781 544.453125 -525.5625 C 544.453125 -524.820312 544.082031 -524.265625 543.34375 -523.890625 C 542.601562 -523.523438 540.566406 -521.117188 537.234375 -516.671875 C 533.898438 -512.222656 531.863281 -509.628906 531.125 -508.890625 L 506.671875 -477.78125 C 487.410156 -448.894531 472.960938 -433.707031 463.328125 -432.21875 C 453.703125 -430.738281 446.671875 -428.148438 442.234375 -424.453125 C 440.742188 -422.972656 437.035156 -420.191406 431.109375 -416.109375 C 425.191406 -412.035156 420.566406 -408.144531 417.234375 -404.4375 C 413.898438 -400.738281 408.15625 -395.554688 400 -388.890625 C 382.226562 -374.816406 372.785156 -366.851562 371.671875 -365 C 370.554688 -363.15625 370 -290.191406 370 -146.109375 C 370 -2.035156 369.8125 70.550781 369.4375 71.65625 C 369.070312 72.769531 368.890625 73.882812 368.890625 75 C 368.890625 76.113281 367.222656 78.890625 363.890625 83.328125 C 360.554688 87.773438 357.78125 90.738281 355.5625 92.21875 L 314.453125 123.328125 C 311.484375 127.035156 305.925781 129.257812 297.78125 130 Z M 434.453125 -142.21875 L 432.234375 -142.21875 C 425.566406 -142.21875 422.234375 -145.179688 422.234375 -151.109375 C 422.234375 -155.554688 425.191406 -162.222656 431.109375 -171.109375 C 434.078125 -177.035156 435.5625 -180.367188 435.5625 -181.109375 C 435.5625 -181.847656 443.335938 -192.960938 458.890625 -214.453125 C 481.117188 -246.296875 501.488281 -278.144531 520 -310 C 520 -310.738281 520.554688 -311.847656 521.671875 -313.328125 C 522.785156 -314.816406 523.710938 -316.671875 524.453125 -318.890625 C 525.191406 -321.109375 526.300781 -323.515625 527.78125 -326.109375 C 529.257812 -328.703125 530.742188 -330.738281 532.234375 -332.21875 C 545.566406 -356.664062 560.007812 -385.554688 575.5625 -418.890625 C 583.707031 -436.671875 595.1875 -468.15625 610 -513.34375 C 626.300781 -565.9375 635.929688 -593.710938 638.890625 -596.671875 C 641.859375 -599.640625 646.675781 -601.863281 653.34375 -603.34375 L 661.125 -604.453125 C 674.457031 -604.453125 687.789062 -598.894531 701.125 -587.78125 L 720.015625 -574.453125 C 730.378906 -566.304688 737.226562 -560.75 740.5625 -557.78125 C 743.894531 -554.820312 746.113281 -551.859375 747.21875 -548.890625 C 748.332031 -545.929688 749.265625 -541.859375 750.015625 -536.671875 C 750.015625 -532.972656 749.085938 -529.269531 747.234375 -525.5625 C 745.378906 -521.851562 743.15625 -519.070312 740.5625 -517.21875 C 737.96875 -515.375 734.453125 -512.96875 730.015625 -510 C 719.640625 -501.851562 711.859375 -493.890625 706.671875 -486.109375 C 701.484375 -478.335938 698.890625 -474.082031 698.890625 -473.34375 L 685.5625 -452.234375 C 679.632812 -441.117188 672.226562 -428.894531 663.34375 -415.5625 C 633.707031 -367.414062 612.222656 -336.300781 598.890625 -322.21875 C 598.890625 -321.476562 598.332031 -320.550781 597.21875 -319.4375 C 596.113281 -318.332031 594.632812 -316.664062 592.78125 -314.4375 C 590.925781 -312.21875 589.257812 -310 587.78125 -307.78125 C 561.113281 -272.96875 546.113281 -254.265625 542.78125 -251.671875 C 539.445312 -249.078125 537.039062 -246.300781 535.5625 -243.34375 C 531.851562 -237.414062 522.960938 -226.671875 508.890625 -211.109375 C 477.035156 -174.816406 459.441406 -155.375 456.109375 -152.78125 C 452.773438 -150.1875 450.179688 -147.960938 448.328125 -146.109375 C 446.484375 -144.253906 441.859375 -142.957031 434.453125 -142.21875 Z M 434.453125 -142.21875 "/></g></g></g><g fill="#000000" fill-opacity="1"><g transform="translate(3246.293302, 1181.574737)"><g><path d="M 70 123.328125 C 67.039062 123.328125 65.5625 122.21875 65.5625 120 C 65.5625 116.300781 71.859375 107.039062 84.453125 92.21875 C 86.671875 90.738281 90.375 86.296875 95.5625 78.890625 C 125.925781 42.585938 148.515625 11.101562 163.328125 -15.5625 C 165.554688 -21.476562 167.222656 -25.546875 168.328125 -27.765625 C 169.441406 -29.992188 170 -31.289062 170 -31.65625 C 170 -32.03125 171.851562 -34.8125 175.5625 -40 C 186.664062 -57.039062 199.257812 -83.335938 213.34375 -118.890625 C 233.34375 -164.816406 246.675781 -209.632812 253.34375 -253.34375 C 253.34375 -255.5625 253.710938 -260.003906 254.453125 -266.671875 C 255.191406 -273.335938 255.929688 -277.78125 256.671875 -280 C 263.335938 -325.1875 266.671875 -360.742188 266.671875 -386.671875 L 256.671875 -385.5625 C 250.003906 -385.5625 239.632812 -385.375 225.5625 -385 C 211.488281 -384.632812 192.597656 -383.894531 168.890625 -382.78125 C 145.179688 -381.664062 129.253906 -381.109375 121.109375 -381.109375 L 113.328125 -381.109375 C 105.179688 -383.335938 99.8125 -385.75 97.21875 -388.34375 C 94.625 -390.9375 92.957031 -395.566406 92.21875 -402.234375 L 92.21875 -411.109375 C 98.144531 -412.597656 139.257812 -415.5625 215.5625 -420 C 240 -421.488281 257.773438 -422.234375 268.890625 -422.234375 L 273.34375 -632.234375 L 271.109375 -637.78125 L 246.671875 -636.671875 C 230.367188 -636.671875 220.921875 -636.300781 218.328125 -635.5625 C 215.742188 -634.820312 213.335938 -632.972656 211.109375 -630.015625 C 209.628906 -625.566406 206.296875 -619.640625 201.109375 -612.234375 C 195.921875 -604.828125 192.21875 -598.898438 190 -594.453125 C 187.78125 -590.003906 185.925781 -587.410156 184.4375 -586.671875 C 182.957031 -585.929688 181.476562 -583.894531 180 -580.5625 C 178.519531 -577.226562 172.59375 -568.15625 162.21875 -553.34375 C 160.738281 -551.863281 152.59375 -540.007812 137.78125 -517.78125 C 122.96875 -495.5625 111.484375 -484.453125 103.328125 -484.453125 C 98.890625 -484.453125 96.671875 -487.046875 96.671875 -492.234375 C 96.671875 -496.671875 100.375 -507.410156 107.78125 -524.453125 C 108.519531 -527.410156 109.441406 -530 110.546875 -532.21875 C 111.660156 -534.445312 112.585938 -536.671875 113.328125 -538.890625 C 114.078125 -541.117188 114.632812 -542.785156 115 -543.890625 C 115.375 -545.003906 117.039062 -548.15625 120 -553.34375 C 120 -554.082031 121.109375 -557.597656 123.328125 -563.890625 C 125.554688 -570.191406 127.78125 -575.191406 130 -578.890625 C 165.550781 -672.222656 185.921875 -744.078125 191.109375 -794.453125 C 191.109375 -796.671875 191.847656 -802.59375 193.328125 -812.21875 C 194.816406 -821.851562 195.5625 -829.265625 195.5625 -834.453125 C 196.300781 -847.785156 197.59375 -856.488281 199.4375 -860.5625 C 201.289062 -864.632812 205.179688 -867.414062 211.109375 -868.90625 C 212.597656 -869.644531 217.785156 -870.015625 226.671875 -870.015625 C 240.742188 -869.273438 256.671875 -864.828125 274.453125 -856.671875 C 283.335938 -852.234375 294.078125 -845.753906 306.671875 -837.234375 C 319.265625 -828.710938 326.671875 -822.972656 328.890625 -820.015625 C 330.367188 -817.785156 331.109375 -815.191406 331.109375 -812.234375 C 331.109375 -807.785156 325.921875 -801.488281 315.546875 -793.34375 C 305.179688 -785.195312 295.925781 -774.457031 287.78125 -761.125 C 272.96875 -735.9375 265.5625 -722.785156 265.5625 -721.671875 C 265.5625 -720.566406 261.671875 -713.347656 253.890625 -700.015625 C 246.109375 -686.679688 241.476562 -679.085938 240 -677.234375 C 238.519531 -675.378906 237.78125 -674.082031 237.78125 -673.34375 C 237.78125 -672.601562 240.375 -672.234375 245.5625 -672.234375 C 250 -672.234375 255.738281 -672.601562 262.78125 -673.34375 C 269.820312 -674.082031 277.414062 -674.453125 285.5625 -674.453125 L 333.34375 -676.671875 C 391.113281 -677.410156 423.703125 -679.632812 431.109375 -683.34375 C 434.816406 -685.5625 440.1875 -690.1875 447.21875 -697.21875 C 454.257812 -704.257812 459.078125 -708.335938 461.671875 -709.453125 C 464.265625 -710.566406 466.300781 -711.125 467.78125 -711.125 L 471.109375 -711.125 C 473.335938 -710.382812 477.96875 -706.492188 485 -699.453125 C 492.039062 -692.410156 498.894531 -685.367188 505.5625 -678.328125 C 512.226562 -671.296875 516.300781 -666.671875 517.78125 -664.453125 L 518.890625 -658.890625 C 518.890625 -650.003906 499.257812 -645.191406 460 -644.453125 L 346.671875 -641.125 L 353.34375 -634.453125 C 382.96875 -612.234375 397.78125 -597.414062 397.78125 -590 C 397.78125 -587.78125 395.1875 -584.078125 390 -578.890625 C 382.59375 -571.484375 378.519531 -565.554688 377.78125 -561.109375 C 377.039062 -556.671875 376.671875 -541.488281 376.671875 -515.5625 C 376.671875 -488.894531 375.929688 -459.265625 374.453125 -426.671875 C 418.148438 -426.671875 443.703125 -428.894531 451.109375 -433.34375 C 456.296875 -435.5625 462.78125 -441.113281 470.5625 -450 C 478.34375 -458.894531 483.15625 -463.894531 485 -465 C 486.851562 -466.113281 488.519531 -466.671875 490 -466.671875 L 495.5625 -465.5625 C 497.039062 -464.820312 500.554688 -461.671875 506.109375 -456.109375 C 511.671875 -450.554688 517.039062 -445.554688 522.21875 -441.109375 C 527.40625 -436.671875 530 -434.082031 530 -433.34375 C 530 -432.601562 531.484375 -430.378906 534.453125 -426.671875 C 543.335938 -417.785156 547.78125 -411.859375 547.78125 -408.890625 C 547.78125 -404.453125 546.671875 -402.234375 544.453125 -402.234375 C 542.234375 -402.234375 541.125 -401.859375 541.125 -401.109375 C 541.125 -400.367188 518.53125 -398.519531 473.34375 -395.5625 C 461.488281 -394.082031 435.929688 -392.597656 396.671875 -391.109375 C 379.628906 -390.367188 370.921875 -389.628906 370.546875 -388.890625 C 370.179688 -388.148438 370 -384.078125 370 -376.671875 C 368.519531 -356.671875 363.707031 -326.671875 355.5625 -286.671875 C 355.5625 -283.703125 356.671875 -281.847656 358.890625 -281.109375 C 374.453125 -277.410156 397.785156 -261.859375 428.890625 -234.453125 C 453.335938 -214.453125 469.265625 -199.632812 476.671875 -190 C 498.890625 -164.8125 513.144531 -147.585938 519.4375 -138.328125 C 525.738281 -129.078125 528.890625 -119.265625 528.890625 -108.890625 C 528.890625 -88.890625 520.742188 -69.628906 504.453125 -51.109375 C 493.335938 -37.773438 480.742188 -31.109375 466.671875 -31.109375 C 457.046875 -31.109375 448.523438 -32.957031 441.109375 -36.65625 C 433.703125 -40.363281 428.332031 -45.921875 425 -53.328125 C 421.664062 -60.734375 418.148438 -75.179688 414.453125 -96.671875 L 411.109375 -121.109375 L 407.78125 -133.328125 C 400.375 -161.484375 389.816406 -189.265625 376.109375 -216.671875 C 362.410156 -244.078125 355.5625 -258.519531 355.5625 -260 C 355.5625 -261.476562 355.191406 -262.21875 354.453125 -262.21875 C 353.710938 -262.21875 353.34375 -262.960938 353.34375 -264.453125 L 345.5625 -241.109375 C 337.414062 -206.296875 330.007812 -181.851562 323.34375 -167.78125 C 321.851562 -164.070312 321.109375 -161.660156 321.109375 -160.546875 C 321.109375 -159.441406 315.554688 -147.78125 304.453125 -125.5625 C 292.597656 -100.375 278.148438 -75.1875 261.109375 -50 C 244.078125 -24.8125 231.488281 -7.773438 223.34375 1.109375 C 192.226562 36.660156 167.039062 61.847656 147.78125 76.671875 C 124.8125 93.703125 112.769531 103.328125 111.65625 105.546875 C 110.550781 107.773438 103.332031 111.851562 90 117.78125 C 80.375 121.476562 73.707031 123.328125 70 123.328125 Z M 498.890625 65.5625 C 492.222656 65.5625 487.222656 65.375 483.890625 65 C 480.554688 64.625 477.78125 62.585938 475.5625 58.890625 C 474.082031 57.410156 472.96875 53.519531 472.21875 47.21875 C 471.476562 40.925781 471.109375 36.664062 471.109375 34.4375 L 471.109375 32.21875 C 473.335938 31.476562 487.597656 30.921875 513.890625 30.546875 C 540.191406 30.179688 554.820312 29.628906 557.78125 28.890625 L 563.34375 28.890625 C 563.34375 -459.265625 565.191406 -709.640625 568.890625 -722.234375 L 568.890625 -727.78125 C 568.890625 -728.519531 566.671875 -728.890625 562.234375 -728.890625 L 540 -727.78125 C 526.664062 -727.78125 516.851562 -728.148438 510.5625 -728.890625 C 504.269531 -729.640625 499.082031 -730.753906 495 -732.234375 C 490.925781 -733.710938 488.332031 -735.75 487.21875 -738.34375 C 486.113281 -740.9375 485.375 -743.898438 485 -747.234375 C 484.632812 -750.566406 484.453125 -752.601562 484.453125 -753.34375 C 484.453125 -756.300781 485.003906 -758.148438 486.109375 -758.890625 C 487.222656 -759.640625 498.519531 -760.382812 520 -761.125 C 522.226562 -762.601562 540.75 -763.710938 575.5625 -764.453125 C 617.78125 -766.671875 652.78125 -767.78125 680.5625 -767.78125 C 708.34375 -767.78125 735.007812 -768.335938 760.5625 -769.453125 C 786.125 -770.566406 819.273438 -771.675781 860.015625 -772.78125 C 900.753906 -773.894531 922.234375 -774.820312 924.453125 -775.5625 C 931.117188 -777.789062 938.15625 -783.347656 945.5625 -792.234375 C 955.9375 -802.597656 962.972656 -807.78125 966.671875 -807.78125 C 968.160156 -807.78125 970.382812 -806.851562 973.34375 -805 C 976.3125 -803.15625 984.460938 -795.9375 997.796875 -783.34375 C 1014.828125 -767.039062 1023.34375 -755.929688 1023.34375 -750.015625 C 1023.34375 -744.828125 1008.160156 -740.75 977.796875 -737.78125 C 955.566406 -736.300781 905.191406 -735.191406 826.671875 -734.453125 C 719.265625 -733.710938 665.191406 -732.972656 664.453125 -732.234375 C 664.453125 -661.859375 664.082031 -592.226562 663.34375 -523.34375 C 720.375 -523.34375 753.890625 -523.710938 763.890625 -524.453125 C 773.898438 -525.191406 792.050781 -525.742188 818.34375 -526.109375 C 844.632812 -526.484375 859.078125 -527.410156 861.671875 -528.890625 C 864.265625 -530.378906 872.226562 -537.789062 885.5625 -551.125 C 901.863281 -567.414062 911.125 -575.5625 913.34375 -575.5625 C 917.789062 -575.5625 923.898438 -572.78125 931.671875 -567.21875 C 939.453125 -561.664062 945.566406 -557.410156 950.015625 -554.453125 L 955.5625 -552.234375 C 957.050781 -551.492188 964.273438 -546.675781 977.234375 -537.78125 C 990.191406 -528.894531 997.785156 -523.34375 1000.015625 -521.125 C 1005.941406 -515.9375 1008.90625 -510.378906 1008.90625 -504.453125 C 1008.90625 -501.484375 1003.347656 -494.816406 992.234375 -484.453125 C 977.421875 -469.640625 969.457031 -459.453125 968.34375 -453.890625 C 967.226562 -448.335938 966.300781 -411.113281 965.5625 -342.21875 C 965.5625 -280 964.820312 -245.1875 963.34375 -237.78125 C 959.644531 -225.1875 952.609375 -215.1875 942.234375 -207.78125 C 936.304688 -202.59375 929.269531 -200 921.125 -200 C 909.269531 -202.96875 897.785156 -217.414062 886.671875 -243.34375 L 791.125 -242.21875 C 779.269531 -240.738281 735.9375 -238.890625 661.125 -236.671875 L 661.125 -188.890625 C 659.632812 -162.222656 658.890625 -90.738281 658.890625 25.5625 L 738.890625 22.21875 C 741.859375 22.21875 754.269531 22.03125 776.125 21.65625 C 797.976562 21.289062 812.976562 20.738281 821.125 20 C 837.414062 20 865.191406 19.257812 904.453125 17.78125 C 932.597656 17.78125 947.785156 17.039062 950.015625 15.5625 C 958.898438 13.332031 968.160156 6.664062 977.796875 -4.4375 C 983.710938 -12.59375 988.894531 -16.671875 993.34375 -16.671875 C 996.3125 -16.671875 1010.753906 -3.335938 1036.671875 23.328125 C 1042.597656 29.992188 1045.5625 35.179688 1045.5625 38.890625 C 1045.5625 49.253906 997.785156 55.179688 902.234375 56.671875 L 816.671875 58.890625 C 794.453125 61.109375 760.75 62.21875 715.5625 62.21875 C 598.519531 64.445312 526.296875 65.5625 498.890625 65.5625 Z M 661.125 -274.453125 L 792.234375 -276.671875 C 829.265625 -277.410156 851.859375 -278.148438 860.015625 -278.890625 L 876.671875 -278.890625 C 876.671875 -404.816406 874.082031 -472.222656 868.90625 -481.109375 C 866.675781 -486.296875 861.859375 -490.003906 854.453125 -492.234375 C 852.972656 -492.972656 846.863281 -493.523438 836.125 -493.890625 C 825.382812 -494.265625 817.789062 -494.453125 813.34375 -494.453125 L 761.125 -492.234375 C 696.675781 -491.492188 664.265625 -490.378906 663.890625 -488.890625 C 663.523438 -487.410156 663.34375 -450.742188 663.34375 -378.890625 Z M 661.125 -274.453125 "/></g></g></g><g fill="#000000" fill-opacity="1"><g transform="translate(4694.306849, 1181.574737)"><g><path d="M 701.125 140 C 693.71875 140 686.679688 134.441406 680.015625 123.328125 L 681.125 11.109375 L 681.125 -175.5625 L 481.109375 -173.328125 C 462.597656 -173.328125 451.488281 -174.625 447.78125 -177.21875 C 444.082031 -179.8125 442.234375 -189.628906 442.234375 -206.671875 C 442.972656 -207.410156 450.75 -207.960938 465.5625 -208.328125 C 480.375 -208.703125 491.484375 -209.257812 498.890625 -210 L 681.125 -215.5625 L 682.234375 -230 L 682.234375 -373.34375 L 654.453125 -374.453125 C 630.003906 -374.453125 610.375 -374.082031 595.5625 -373.34375 L 565.5625 -373.34375 C 534.445312 -348.15625 513.335938 -335.5625 502.234375 -335.5625 C 494.078125 -335.5625 487.222656 -338.523438 481.671875 -344.453125 C 476.117188 -350.378906 471.117188 -361.117188 466.671875 -376.671875 C 464.453125 -384.816406 463.34375 -391.113281 463.34375 -395.5625 C 463.34375 -397.039062 463.710938 -398.890625 464.453125 -401.109375 C 465.191406 -403.335938 468.523438 -407.785156 474.453125 -414.453125 C 487.785156 -429.265625 507.96875 -468.519531 535 -532.21875 C 562.039062 -595.925781 575.5625 -634.445312 575.5625 -647.78125 C 494.820312 -647.78125 453.710938 -648.148438 452.234375 -648.890625 C 447.046875 -653.335938 444.453125 -660.003906 444.453125 -668.890625 C 444.453125 -674.816406 445.003906 -678.148438 446.109375 -678.890625 C 447.222656 -679.640625 468.894531 -680.382812 511.125 -681.125 C 545.9375 -684.082031 572.601562 -685.5625 591.125 -685.5625 L 621.125 -781.125 C 627.789062 -801.863281 633.710938 -822.972656 638.890625 -844.453125 C 644.078125 -865.929688 648.335938 -877.597656 651.671875 -879.453125 C 655.003906 -881.304688 658.894531 -882.234375 663.34375 -882.234375 C 673.707031 -882.234375 692.222656 -873.34375 718.890625 -855.5625 C 724.816406 -851.125 729.257812 -847.789062 732.21875 -845.5625 C 735.1875 -843.34375 736.851562 -842.234375 737.21875 -842.234375 C 737.59375 -842.234375 740.554688 -839.082031 746.109375 -832.78125 C 751.671875 -826.488281 755.191406 -821.863281 756.671875 -818.90625 C 758.148438 -815.9375 758.890625 -812.226562 758.890625 -807.78125 C 758.890625 -802.601562 755.1875 -794.085938 747.78125 -782.234375 C 736.675781 -763.710938 720.378906 -732.972656 698.890625 -690.015625 C 698.890625 -689.265625 701.113281 -688.890625 705.5625 -688.890625 C 709.269531 -688.890625 715.195312 -689.078125 723.34375 -689.453125 C 731.488281 -689.828125 747.414062 -690.015625 771.125 -690.015625 C 836.3125 -691.492188 871.863281 -692.601562 877.78125 -693.34375 C 887.414062 -695.5625 897.414062 -701.851562 907.78125 -712.21875 C 918.15625 -722.59375 924.082031 -727.960938 925.5625 -728.328125 C 927.050781 -728.703125 928.164062 -728.890625 928.90625 -728.890625 C 930.382812 -728.890625 931.863281 -728.148438 933.34375 -726.671875 C 941.488281 -722.972656 955.929688 -710.007812 976.671875 -687.78125 C 983.335938 -679.632812 986.671875 -674.082031 986.671875 -671.125 C 986.671875 -662.96875 928.15625 -657.410156 811.125 -654.453125 C 746.675781 -652.972656 702.972656 -651.117188 680.015625 -648.890625 L 654.453125 -598.890625 C 641.859375 -574.453125 635.5625 -561.675781 635.5625 -560.5625 C 635.5625 -559.445312 630.375 -547.78125 620 -525.5625 C 587.414062 -462.59375 571.125 -424.070312 571.125 -410 L 573.34375 -408.890625 C 626.675781 -410.367188 662.601562 -411.851562 681.125 -413.34375 C 681.863281 -416.300781 682.234375 -447.960938 682.234375 -508.328125 C 682.234375 -568.703125 684.082031 -598.890625 687.78125 -598.890625 L 691.125 -597.78125 C 733.34375 -597.78125 765.9375 -587.039062 788.90625 -565.5625 C 792.601562 -561.851562 794.453125 -557.039062 794.453125 -551.125 C 794.453125 -545.9375 789.640625 -536.304688 780.015625 -522.234375 L 780.015625 -500 C 779.273438 -489.632812 778.90625 -472.96875 778.90625 -450 C 778.90625 -427.039062 778.90625 -415.191406 778.90625 -414.453125 L 808.90625 -415.5625 C 828.90625 -415.5625 844.273438 -416.113281 855.015625 -417.21875 C 865.753906 -418.332031 873.53125 -419.816406 878.34375 -421.671875 C 883.15625 -423.523438 890.007812 -429.632812 898.90625 -440 L 914.453125 -454.453125 C 918.898438 -454.453125 925.195312 -450.378906 933.34375 -442.234375 C 957.789062 -415.566406 970.015625 -400.007812 970.015625 -395.5625 C 970.015625 -388.15625 947.421875 -383.710938 902.234375 -382.234375 L 790.015625 -377.78125 C 783.347656 -377.78125 779.828125 -377.59375 779.453125 -377.21875 C 779.085938 -376.851562 778.53125 -350.375 777.78125 -297.78125 L 777.78125 -217.78125 C 853.34375 -217.78125 898.53125 -218.890625 913.34375 -221.109375 C 922.226562 -224.078125 931.488281 -231.859375 941.125 -244.453125 C 946.3125 -251.859375 951.125 -255.5625 955.5625 -255.5625 C 958.53125 -255.5625 962.601562 -253.148438 967.78125 -248.328125 C 972.96875 -243.515625 980.375 -235.550781 990 -224.4375 C 999.632812 -213.332031 1004.820312 -206.296875 1005.5625 -203.328125 L 1007.796875 -198.890625 C 1007.796875 -198.148438 1007.238281 -196.664062 1006.125 -194.4375 C 1005.007812 -192.21875 1003.710938 -190.738281 1002.234375 -190 C 976.304688 -184.8125 928.898438 -181.476562 860.015625 -180 C 805.941406 -179.257812 778.53125 -178.703125 777.78125 -178.328125 C 777.039062 -177.960938 776.671875 -160.003906 776.671875 -124.453125 C 776.671875 -78.523438 776.484375 -36.671875 776.109375 1.109375 C 775.742188 38.890625 775.003906 61.113281 773.890625 67.78125 C 772.785156 74.445312 770.75 81.484375 767.78125 88.890625 C 761.851562 99.265625 752.96875 109.632812 741.125 120 C 726.300781 131.851562 712.96875 138.519531 701.125 140 Z M 145.5625 121.109375 L 143.328125 121.109375 C 138.890625 121.109375 134.816406 119.253906 131.109375 115.546875 C 127.410156 111.847656 125.375 103.332031 125 90 C 124.632812 76.664062 124.453125 30.367188 124.453125 -48.890625 L 125.5625 -611.125 C 125.5625 -737.789062 125.1875 -804.085938 124.4375 -810.015625 C 123.695312 -815.941406 123.328125 -820.382812 123.328125 -823.34375 C 123.328125 -832.96875 126.660156 -837.78125 133.328125 -837.78125 C 166.660156 -831.863281 196.664062 -818.160156 223.34375 -796.671875 C 296.675781 -796.671875 336.675781 -797.785156 343.34375 -800.015625 C 344.820312 -800.753906 348.894531 -804.457031 355.5625 -811.125 C 369.632812 -825.195312 379.632812 -832.234375 385.5625 -832.234375 C 395.925781 -832.234375 420 -815.9375 457.78125 -783.34375 C 472.59375 -770.75 480 -761.859375 480 -756.671875 C 480 -752.234375 476.296875 -747.050781 468.890625 -741.125 C 454.078125 -729.269531 441.113281 -715.566406 430 -700.015625 L 410 -675.5625 C 401.851562 -664.445312 397.039062 -658.148438 395.5625 -656.671875 C 394.082031 -655.191406 393.34375 -654.082031 393.34375 -653.34375 C 334.082031 -566.675781 304.453125 -521.859375 304.453125 -518.890625 C 304.453125 -518.148438 306.300781 -516.296875 310 -513.328125 C 313.707031 -510.367188 318.894531 -505.925781 325.5625 -500 C 341.851562 -485.1875 355.925781 -470.375 367.78125 -455.5625 C 383.332031 -438.519531 394.441406 -423.332031 401.109375 -410 C 402.597656 -406.300781 404.453125 -404.082031 406.671875 -403.34375 C 414.078125 -394.445312 421.851562 -378.148438 430 -354.453125 C 436.664062 -341.117188 440 -322.597656 440 -298.890625 C 440 -258.148438 429.628906 -221.851562 408.890625 -190 C 402.222656 -181.851562 392.960938 -172.035156 381.109375 -160.546875 C 369.265625 -149.066406 359.640625 -141.109375 352.234375 -136.671875 C 338.890625 -129.265625 323.703125 -125.5625 306.671875 -125.5625 C 299.265625 -125.5625 294.078125 -127.039062 291.109375 -130 C 288.148438 -132.96875 285.1875 -141.117188 282.21875 -154.453125 C 276.300781 -182.597656 264.632812 -202.78125 247.21875 -215 C 229.8125 -227.226562 221.109375 -234.453125 221.109375 -236.671875 C 221.109375 -240.367188 222.59375 -243.703125 225.5625 -246.671875 L 293.34375 -248.890625 L 301.109375 -253.34375 C 322.597656 -262.226562 333.34375 -290.003906 333.34375 -336.671875 C 333.34375 -393.710938 317.785156 -447.414062 286.671875 -497.78125 C 280.742188 -505.925781 277.78125 -513.332031 277.78125 -520 C 302.226562 -618.519531 317.039062 -676.671875 322.21875 -694.453125 C 334.070312 -735.929688 340 -758.15625 340 -761.125 L 322.21875 -763.34375 L 233.34375 -760.015625 C 225.925781 -757.785156 221.109375 -501.484375 218.890625 8.890625 C 218.890625 40.742188 217.40625 58.890625 214.4375 63.328125 C 211.476562 67.773438 203.332031 76.847656 190 90.546875 C 176.664062 104.253906 168.332031 112.21875 165 114.4375 C 161.664062 116.664062 155.1875 118.890625 145.5625 121.109375 Z M 145.5625 121.109375 "/></g></g></g></svg>